<svg width="85" height="76" viewBox="0 0 85 76" fill="none" xmlns="http://www.w3.org/2000/svg">
<path d="M10.7477 17.4845L36.6152 3.49855L62.3653 17.4845V32.0783H65.4812V19.1764L70.5105 22.0686L71.9468 19.2941L42.7257 3.37747L36.6156 0L1.16669 19.1762L2.60295 21.946L7.63225 19.1762V60.4166H37.2138V57.2794H10.7474L10.7477 17.4845Z" fill="#DB2B45" stroke="#DB2B45" stroke-width="0.5"/>
<path d="M84.1667 72.5928L72.3116 63.4261C74.2298 60.6516 75.3058 57.2741 75.3058 53.6564C75.3058 44.1318 67.6426 36.4109 58.1778 36.4109C48.718 36.4109 41.0497 44.1267 41.0497 53.6564C41.0497 63.1811 48.713 70.9019 58.1778 70.9019C62.9685 70.9019 67.2821 68.9706 70.3929 65.7156L82.3697 75.0001L84.1667 72.5928ZM58.0561 67.7693C50.2712 67.7693 43.9223 61.377 43.9223 53.5385C43.9223 45.6999 50.2709 39.3077 58.0561 39.3077C65.8413 39.3077 72.1899 45.6999 72.1899 53.5385C72.1899 61.3815 65.8413 67.7693 58.0561 67.7693Z" fill="#DB2B45" stroke="#DB2B45" stroke-width="0.5"/>
</svg>
